<svg version="1.1" id="Layer_1" xmlns="http://www.w3.org/2000/svg" xmlns:xlink="http://www.w3.org/1999/xlink" x="0px" y="0px"
	 width="100%" viewBox="0 0 512 512" enable-background="new 0 0 512 512" xml:space="preserve">
<path fill="#FDFFFF" opacity="1.000000" stroke="none" 
	d="
M513.000000,203.000000 
	C513.000000,306.641479 513.000000,409.782959 513.000000,512.962219 
	C342.400177,512.962219 171.800339,512.962219 1.100256,512.962219 
	C1.100256,342.441895 1.100256,171.883682 1.100256,1.162741 
	C171.666534,1.162741 342.333252,1.162741 513.000000,1.162741 
	C513.000000,68.199615 513.000000,135.349808 513.000000,203.000000 
M477.392761,278.500061 
	C477.392761,198.065704 477.392761,117.631363 477.392761,37.008461 
	C330.201202,37.008461 183.548599,37.008461 36.960663,37.008461 
	C36.960663,184.158127 36.960663,330.868683 36.960663,477.675751 
	C183.875534,477.675751 330.429291,477.675751 477.392853,477.675751 
	C477.392853,411.416626 477.392853,345.458344 477.392761,278.500061 
z"/>
<path fill="#01C4E1" opacity="1.000000" stroke="none" 
	d="
M477.392822,279.000061 
	C477.392853,345.458344 477.392853,411.416626 477.392853,477.675751 
	C330.429291,477.675751 183.875534,477.675751 36.960663,477.675751 
	C36.960663,330.868683 36.960663,184.158127 36.960663,37.008461 
	C183.548599,37.008461 330.201202,37.008461 477.392761,37.008461 
	C477.392761,117.631363 477.392761,198.065704 477.392822,279.000061 
M208.081970,397.896881 
	C208.081970,397.896881 208.143341,397.794220 208.290878,398.323486 
	C208.600189,398.493683 208.909500,398.663879 209.132568,398.886444 
	C209.132568,398.886444 209.128677,398.785583 209.370819,399.363800 
	C209.743088,399.530487 210.115341,399.697144 211.068710,400.131622 
	C217.286255,403.935944 223.222092,408.333832 229.770187,411.441711 
	C257.877411,424.782166 294.846985,415.847565 312.420654,391.633881 
	C312.821838,391.024292 313.223022,390.414703 314.122131,389.339417 
	C315.579803,387.319611 317.290649,385.432190 318.433044,383.247498 
	C319.967224,380.313507 322.007996,379.077576 325.257599,379.885223 
	C327.450104,380.430176 329.648163,381.190796 331.872772,381.309204 
	C334.720581,381.460724 337.597565,381.063629 340.660919,380.697266 
	C340.788269,380.555634 340.906647,380.406891 340.983337,380.062653 
	C340.983337,380.062653 341.172882,380.037201 341.813599,379.873993 
	C341.142242,377.271942 340.470856,374.669922 339.887238,372.038361 
	C339.887238,372.038361 339.886963,372.130981 339.947632,371.275909 
	C339.294586,366.884430 338.641571,362.492950 338.611084,357.915405 
	C339.035248,357.883423 339.459412,357.851471 340.400299,358.451660 
	C342.306793,358.622620 344.213287,358.793579 346.879486,358.961151 
	C347.887909,358.927917 348.896362,358.894684 350.423553,359.476471 
	C353.631714,359.624756 356.839844,359.773071 360.827545,359.964417 
	C361.868073,359.948517 362.908630,359.932617 364.342926,360.448975 
	C365.899139,359.994751 367.455383,359.540558 369.329651,358.883209 
	C369.329651,358.883209 369.705444,358.917725 370.275330,358.704346 
	C370.489807,358.371185 370.704254,358.038055 370.905518,357.312347 
	C370.905518,357.312347 371.135315,356.993805 371.542603,356.643402 
	C371.302612,356.122009 371.062622,355.600616 370.921844,355.056000 
	C370.921844,355.056000 370.916199,355.157684 370.785034,354.684479 
	C370.643250,354.373505 370.419556,354.141541 369.872101,353.789276 
	C369.872101,353.789276 369.926056,353.480560 369.797302,352.890869 
	C369.539459,352.596893 369.281616,352.302948 368.985992,351.998016 
	C368.985992,351.998016 369.001617,351.961975 368.937531,351.375977 
	C368.613861,350.925018 368.290192,350.474030 368.000000,350.000000 
	C368.000000,350.000000 367.969940,350.027832 367.928040,349.422760 
	C367.600372,348.957184 367.272675,348.491608 367.003174,348.008026 
	C367.003174,348.008026 366.959106,348.050262 366.927155,347.444550 
	C366.610596,346.971497 366.294006,346.498444 365.999054,346.006500 
	C365.999054,346.006500 365.972900,346.011169 365.928375,345.412170 
	C365.621765,344.928101 365.315155,344.444031 364.826965,343.794739 
	C364.826965,343.794739 364.934021,343.573792 364.914246,342.819794 
	C364.536713,342.235535 364.159180,341.651276 363.892670,341.074738 
	C363.892670,341.074738 363.845673,341.175629 363.892395,340.526367 
	C363.551117,340.031219 363.209839,339.536041 362.953156,339.025238 
	C362.953156,339.025238 362.918518,339.103973 362.959686,338.277679 
	C362.052826,333.205383 360.008881,328.129791 363.006439,322.999268 
	C363.006439,322.999268 363.075714,323.006622 363.720184,322.907379 
	C364.120728,322.451904 364.521271,321.996460 365.311798,321.017883 
	C372.591858,316.685577 380.043579,312.613464 387.107330,307.953278 
	C395.421478,302.468231 395.175110,302.242706 387.155121,296.240356 
	C378.782501,289.974091 370.615387,283.432281 362.389221,276.971741 
	C359.984222,275.082916 359.820282,272.819763 361.884521,270.591522 
	C365.376923,266.821564 368.601196,262.681396 372.588409,259.515930 
	C382.224915,251.865585 392.255432,244.712784 402.078400,237.294891 
	C403.691010,236.077087 405.056213,234.531693 407.307739,232.410355 
	C388.842590,226.976135 371.464569,221.861832 353.651794,216.619598 
	C356.425110,211.185959 358.532959,207.056137 361.309845,202.650604 
	C361.870667,201.093979 362.431488,199.537338 363.003601,197.997147 
	C363.003601,197.997147 362.984802,197.999252 363.490173,197.657150 
	C363.646423,197.083664 363.802643,196.510178 363.999878,195.987442 
	C363.999878,195.987442 363.934723,195.984146 364.462006,195.652817 
	C364.617859,195.069183 364.773712,194.485550 364.970764,193.970184 
	C364.970764,193.970184 364.891174,193.974899 365.436859,193.638474 
	C365.575134,193.036270 365.713440,192.434067 365.895782,191.924850 
	C365.895782,191.924850 365.793060,191.930344 366.429871,191.603683 
	C366.933075,190.040787 367.436249,188.477875 367.980774,186.978821 
	C367.980774,186.978821 367.904846,186.982956 368.478455,186.572708 
	C368.621521,185.894485 368.764587,185.216278 368.845551,184.254898 
	C368.845551,184.254898 369.048828,184.048218 369.525574,183.671204 
	C369.673401,183.098007 369.821228,182.524811 370.004913,181.990005 
	C370.004913,181.990005 369.952484,181.987885 370.476624,181.642807 
	C370.616394,181.050034 370.756195,180.457275 370.933929,179.946259 
	C370.933929,179.946259 370.844757,179.959274 371.461456,179.605804 
	C371.959717,178.047577 372.458008,176.489334 372.997864,174.984390 
	C372.997864,174.984390 372.930267,174.984650 373.459930,174.641922 
	C373.602478,174.048065 373.745026,173.454208 373.926605,172.943481 
	C373.926605,172.943481 373.835510,172.955109 374.421295,172.613434 
	C374.620514,171.752213 374.819763,170.891006 374.995361,170.007919 
	C374.995361,170.007919 375.026459,170.009506 375.515961,169.657349 
	C375.667114,169.088181 375.818268,168.518997 376.004913,167.990021 
	C376.004913,167.990021 375.951385,167.988693 376.477142,167.643280 
	C376.614655,167.049194 376.752167,166.455124 376.929779,165.943726 
	C376.929779,165.943726 376.838928,165.957642 377.423553,165.610275 
	C377.619690,164.745667 377.815826,163.881058 377.998779,163.001785 
	C377.998779,163.001785 378.015564,163.006668 378.509766,162.657532 
	C378.662140,162.087250 378.814484,161.516983 379.004425,160.989120 
	C379.004425,160.989120 378.947784,160.987411 379.470581,160.647797 
	C379.619843,160.061081 379.769104,159.474365 379.954498,158.960144 
	C379.954498,158.960144 379.874481,158.972900 380.452118,158.592545 
	C380.605408,157.934723 380.758667,157.276886 380.879608,156.290756 
	C380.879608,156.290756 381.095520,156.041351 381.685944,155.677521 
	C382.451599,153.773895 383.217255,151.870285 384.006012,149.994095 
	C384.006012,149.994095 383.970337,149.994904 384.476990,149.669128 
	C384.648560,149.107880 384.820160,148.546616 385.001221,147.998871 
	C385.001221,147.998871 384.986481,147.996704 385.488007,147.673813 
	C385.659576,147.117645 385.831146,146.561478 386.000000,146.000000 
	C386.000000,146.000000 386.004486,146.001160 386.615540,145.692413 
	C387.018616,143.808746 387.421692,141.925095 387.948456,140.039749 
	C387.948456,140.039749 387.929993,140.162079 387.761688,139.648712 
	C387.477386,139.440903 387.193115,139.233093 386.981476,139.011749 
	C386.981476,139.011749 386.988281,139.085342 386.551636,138.512497 
	C384.705811,139.024414 382.859955,139.536316 381.011047,139.994736 
	C381.011047,139.994736 381.050293,140.031265 380.451385,140.038010 
	C379.959595,140.331879 379.467834,140.625748 378.727234,141.134872 
	C378.727234,141.134872 378.400787,141.094025 377.700745,141.075790 
	C377.139404,141.413177 376.578033,141.750549 376.019897,142.013885 
	C376.019897,142.013885 376.081970,142.054443 375.467926,142.052765 
	C374.977173,142.364044 374.486450,142.675308 373.998352,143.001465 
	C373.998352,143.001465 373.984802,142.990646 373.294922,142.991623 
	C372.544495,143.382904 371.794098,143.774185 371.053131,144.072998 
	C371.053131,144.072998 371.138611,144.109467 370.401337,144.047134 
	C368.939270,144.724289 367.477173,145.401443 366.019104,146.007538 
	C366.019104,146.007538 366.077209,146.048660 365.375275,146.018860 
	C364.591064,146.384491 363.806854,146.750137 363.027893,147.036240 
	C363.027893,147.036240 363.099121,147.072037 362.312958,147.023392 
	C360.530823,147.659698 358.748718,148.296021 356.667816,149.133865 
	C356.667816,149.133865 356.312073,149.075882 355.423981,149.028244 
	C345.235535,151.088318 335.049866,153.162033 324.857605,155.203171 
	C319.027924,156.370667 318.834625,156.340393 319.030884,150.567413 
	C319.810028,127.648582 317.779297,104.902779 314.886169,82.218468 
	C314.359772,78.091286 312.942139,74.077782 312.000458,70.015335 
	C312.000458,70.015335 311.961578,70.066971 311.929443,69.415901 
	C311.525177,68.965057 311.120941,68.514221 309.991882,67.945312 
	C308.671356,68.718071 306.953125,69.185326 306.089813,70.309265 
	C292.613403,87.854675 279.359711,105.572098 265.789642,123.044022 
	C261.562469,128.486679 256.548462,133.318192 251.660812,138.686310 
	C250.596954,137.298019 250.031525,136.691422 249.613876,135.996063 
	C236.233063,113.717194 218.843353,94.609390 201.514511,75.476791 
	C199.612320,73.376617 196.506958,72.366180 193.959641,70.850319 
	C193.320374,73.437347 192.325974,75.993408 192.097290,78.616249 
	C190.015991,102.485229 188.172623,126.375320 186.009155,150.236526 
	C185.456726,156.329422 184.439636,156.788773 178.630249,155.404358 
	C157.914169,150.467560 137.222366,145.428467 116.490456,140.559677 
	C114.909332,140.188354 113.086456,140.846436 111.375954,141.026016 
	C111.631508,142.424622 111.575195,143.980621 112.189590,145.198135 
	C120.802048,162.264893 129.518097,179.279312 138.182159,196.320099 
	C142.058716,203.944641 145.875626,211.599503 150.388107,220.569473 
	C132.793564,223.756699 116.291031,226.746094 99.788498,229.735504 
	C99.652061,230.300079 99.515625,230.864655 99.379189,231.429230 
	C112.877289,246.853928 133.486832,254.500549 145.638000,272.211060 
	C132.847260,282.801544 118.776276,290.704437 102.170906,297.222565 
	C106.965103,300.423370 110.187798,303.034943 113.797943,304.894196 
	C122.663689,309.460175 131.781372,313.536194 140.657440,318.083130 
	C147.962738,321.825409 148.461594,322.839722 145.562927,330.660248 
	C142.677994,338.443726 139.171341,346.002075 135.792114,353.594513 
	C134.407028,356.706543 134.141144,359.044647 137.938141,360.278412 
	C144.919937,360.612183 151.901749,360.945953 158.883545,361.279755 
	C158.895630,360.948700 158.907700,360.617645 158.919785,360.286621 
	C156.505463,360.101654 154.091141,359.916718 152.447266,359.383972 
	C158.468445,359.169617 164.489700,358.957947 170.510742,358.739838 
	C173.628677,358.626862 175.330154,360.219727 175.148407,363.238678 
	C174.919189,367.045715 174.412186,370.848389 173.807083,374.618011 
	C172.120377,385.125641 172.211304,385.638214 182.470642,382.966461 
	C190.436401,380.891968 196.295853,381.960999 200.289307,390.211456 
	C200.605347,390.430573 200.921387,390.649719 201.825714,391.134430 
	C202.520920,390.780701 203.216110,390.426941 204.534164,390.294220 
	C206.022308,392.149994 207.510468,394.005798 208.349686,395.945801 
	C207.918228,396.000824 207.486755,396.055847 206.671097,395.578522 
	C205.955597,395.617096 205.240112,395.655640 204.524597,395.694244 
	C205.381454,396.108795 206.238297,396.523376 207.022125,396.980896 
	C207.022125,396.980896 207.044067,396.899048 207.265778,397.386047 
	C207.575424,397.543030 207.885071,397.699982 208.081970,397.896881 
M202.517029,393.412933 
	C202.517029,393.412933 202.582443,393.522888 202.517029,393.412933 
z"/>
<path fill="#010202" opacity="1.000000" stroke="none" 
	d="
M200.142105,389.632721 
	C196.295853,381.960999 190.436401,380.891968 182.470642,382.966461 
	C172.211304,385.638214 172.120377,385.125641 173.807083,374.618011 
	C174.412186,370.848389 174.919189,367.045715 175.148407,363.238678 
	C175.330154,360.219727 173.628677,358.626862 170.510742,358.739838 
	C164.489700,358.957947 158.468445,359.169617 151.625031,359.477142 
	C146.635071,359.629059 142.467346,359.687805 138.299622,359.746552 
	C134.141144,359.044647 134.407028,356.706543 135.792114,353.594513 
	C139.171341,346.002075 142.677994,338.443726 145.562927,330.660248 
	C148.461594,322.839722 147.962738,321.825409 140.657440,318.083130 
	C131.781372,313.536194 122.663689,309.460175 113.797943,304.894196 
	C110.187798,303.034943 106.965103,300.423370 102.170906,297.222565 
	C118.776276,290.704437 132.847260,282.801544 145.638000,272.211060 
	C133.486832,254.500549 112.877289,246.853928 99.379189,231.429230 
	C99.515625,230.864655 99.652061,230.300079 99.788498,229.735504 
	C116.291031,226.746094 132.793564,223.756699 150.388107,220.569473 
	C145.875626,211.599503 142.058716,203.944641 138.182159,196.320099 
	C129.518097,179.279312 120.802048,162.264893 112.189590,145.198135 
	C111.575195,143.980621 111.631508,142.424622 111.375954,141.026016 
	C113.086456,140.846436 114.909332,140.188354 116.490456,140.559677 
	C137.222366,145.428467 157.914169,150.467560 178.630249,155.404358 
	C184.439636,156.788773 185.456726,156.329422 186.009155,150.236526 
	C188.172623,126.375320 190.015991,102.485229 192.097290,78.616249 
	C192.325974,75.993408 193.320374,73.437347 193.959641,70.850319 
	C196.506958,72.366180 199.612320,73.376617 201.514511,75.476791 
	C218.843353,94.609390 236.233063,113.717194 249.613876,135.996063 
	C250.031525,136.691422 250.596954,137.298019 251.660812,138.686310 
	C256.548462,133.318192 261.562469,128.486679 265.789642,123.044022 
	C279.359711,105.572098 292.613403,87.854675 306.089813,70.309265 
	C306.953125,69.185326 308.671356,68.718071 310.452393,68.287987 
	C311.262482,69.109428 311.612030,69.588196 311.961578,70.066971 
	C311.961578,70.066971 312.000458,70.015335 311.986267,70.452759 
	C315.780487,99.501160 319.305664,128.133560 317.596741,158.698914 
	C331.307007,155.291122 343.809540,152.183502 356.312073,149.075882 
	C356.312073,149.075882 356.667816,149.133865 357.186829,149.041290 
	C359.503601,148.323166 361.301361,147.697601 363.099121,147.072037 
	C363.099121,147.072037 363.027893,147.036240 363.362000,147.086273 
	C364.489807,146.773758 365.283508,146.411209 366.077209,146.048660 
	C366.077209,146.048660 366.019104,146.007538 366.371765,146.032364 
	C368.195801,145.407959 369.667206,144.758713 371.138611,144.109467 
	C371.138611,144.109467 371.053131,144.072998 371.374786,144.106995 
	C372.459229,143.757538 373.222015,143.374100 373.984802,142.990646 
	C373.984802,142.990646 373.998352,143.001465 374.295532,142.985748 
	C375.089111,142.664841 375.585541,142.359634 376.081970,142.054443 
	C376.081970,142.054443 376.019897,142.013885 376.354065,142.042328 
	C377.259094,141.745178 377.829956,141.419601 378.400787,141.094025 
	C378.400787,141.094025 378.727234,141.134872 379.145813,141.024017 
	C380.059723,140.619202 380.555023,140.325241 381.050293,140.031281 
	C381.050293,140.031265 381.011047,139.994736 381.393158,140.004410 
	C383.512939,139.704514 385.250610,139.394928 386.988281,139.085358 
	C386.988281,139.085342 386.981476,139.011749 387.071472,139.246902 
	C387.417664,139.708740 387.673828,139.935410 387.929993,140.162079 
	C387.929993,140.162079 387.948456,140.039749 387.836151,140.384552 
	C387.150726,142.486618 386.577606,144.243896 386.004486,146.001160 
	C386.004486,146.001160 386.000000,146.000000 385.794708,146.205658 
	C385.388458,146.939789 385.187469,147.468246 384.986481,147.996704 
	C384.986481,147.996704 385.001221,147.998871 384.779724,148.189819 
	C384.362274,148.918823 384.166321,149.456863 383.970337,149.994904 
	C383.970337,149.994904 384.006012,149.994095 383.756836,150.217499 
	C382.703583,152.307724 381.899567,154.174530 381.095520,156.041351 
	C381.095520,156.041351 380.879608,156.290756 380.644470,156.679764 
	C380.231079,157.703491 380.052795,158.338196 379.874512,158.972900 
	C379.874481,158.972900 379.954498,158.960144 379.695862,159.111130 
	C379.274078,159.837219 379.110931,160.412308 378.947784,160.987411 
	C378.947784,160.987411 379.004425,160.989120 378.771118,161.171570 
	C378.363708,161.904907 378.189636,162.455780 378.015564,163.006668 
	C378.015564,163.006668 377.998779,163.001785 377.798370,163.258652 
	C377.344940,164.329559 377.091949,165.143600 376.838928,165.957642 
	C376.838928,165.957642 376.929779,165.943726 376.667328,166.090546 
	C376.253723,166.821136 376.102570,167.404922 375.951385,167.988693 
	C375.951385,167.988693 376.004913,167.990021 375.777466,168.176895 
	C375.375519,168.912354 375.200989,169.460938 375.026489,170.009506 
	C375.026459,170.009506 374.995361,170.007919 374.799835,170.266754 
	C374.348053,171.335434 374.091797,172.145279 373.835510,172.955109 
	C373.835510,172.955109 373.926605,172.943481 373.659393,173.085419 
	C373.238220,173.813126 373.084229,174.398880 372.930267,174.984650 
	C372.930267,174.984650 372.997864,174.984390 372.735443,175.201996 
	C371.930267,176.932831 371.387512,178.446060 370.844757,179.959274 
	C370.844757,179.959274 370.933929,179.946259 370.671387,180.092499 
	C370.256744,180.821777 370.104614,181.404831 369.952484,181.987885 
	C369.952484,181.987885 370.004913,181.990005 369.778748,182.182587 
	C369.384644,182.932846 369.216736,183.490524 369.048828,184.048218 
	C369.048828,184.048218 368.845551,184.254898 368.629028,184.638962 
	C368.243286,185.676331 368.074066,186.329636 367.904846,186.982956 
	C367.904846,186.982956 367.980774,186.978821 367.704346,187.177902 
	C366.882965,188.894775 366.338043,190.412567 365.793091,191.930359 
	C365.793060,191.930344 365.895782,191.924850 365.621582,192.060028 
	C365.195343,192.788422 365.043243,193.381668 364.891174,193.974899 
	C364.891174,193.974899 364.970764,193.970184 364.707275,194.119507 
	C364.274109,194.840607 364.104431,195.412384 363.934723,195.984146 
	C363.934723,195.984146 363.999878,195.987442 363.756775,196.160126 
	C363.337402,196.888275 363.161102,197.443771 362.984802,197.999252 
	C362.984802,197.999252 363.003601,197.997147 362.762512,198.237076 
	C361.894592,199.960114 361.267731,201.443222 360.640839,202.926331 
	C358.532959,207.056137 356.425110,211.185959 353.651794,216.619598 
	C371.464569,221.861832 388.842590,226.976135 407.307739,232.410355 
	C405.056213,234.531693 403.691010,236.077087 402.078400,237.294891 
	C392.255432,244.712784 382.224915,251.865585 372.588409,259.515930 
	C368.601196,262.681396 365.376923,266.821564 361.884521,270.591522 
	C359.820282,272.819763 359.984222,275.082916 362.389221,276.971741 
	C370.615387,283.432281 378.782501,289.974091 387.155121,296.240356 
	C395.175110,302.242706 395.421478,302.468231 387.107330,307.953278 
	C380.043579,312.613464 372.591858,316.685577 364.833008,321.393127 
	C363.928070,322.181122 363.501892,322.593872 363.075714,323.006622 
	C363.075714,323.006622 363.006439,322.999268 362.683441,323.195984 
	C358.081024,328.788422 360.146423,333.958740 362.918518,339.103973 
	C362.918518,339.103973 362.953156,339.025238 362.919830,339.345703 
	C363.206238,340.169312 363.525970,340.672455 363.845673,341.175629 
	C363.845673,341.175629 363.892670,341.074738 363.869019,341.429504 
	C364.208252,342.380768 364.571136,342.977264 364.934021,343.573792 
	C364.934021,343.573792 364.826965,343.794739 364.935089,344.172363 
	C365.353119,345.037048 365.662994,345.524109 365.972900,346.011169 
	C365.972900,346.011169 365.999054,346.006500 366.001404,346.310181 
	C366.322205,347.092621 366.640656,347.571442 366.959106,348.050262 
	C366.959106,348.050262 367.003174,348.008026 366.994629,348.309937 
	C367.314056,349.083862 367.641998,349.555847 367.969940,350.027832 
	C367.969940,350.027832 368.000000,350.000000 368.008728,350.296326 
	C368.345520,351.049103 368.673584,351.505554 369.001617,351.961975 
	C369.001617,351.961975 368.985992,351.998016 369.051636,352.301147 
	C369.386871,352.896393 369.656464,353.188477 369.926056,353.480560 
	C369.926056,353.480560 369.872101,353.789276 370.017944,354.147614 
	C370.414581,354.723206 370.665405,354.940430 370.916199,355.157684 
	C370.916199,355.157684 370.921844,355.056000 370.895508,355.390869 
	C370.957886,356.148438 371.046600,356.571136 371.135315,356.993805 
	C371.135315,356.993805 370.905518,357.312347 370.655640,357.651154 
	C370.172302,358.299194 369.938873,358.608459 369.705444,358.917725 
	C369.705444,358.917725 369.329651,358.883209 368.782043,358.938660 
	C366.806000,359.301666 365.377563,359.609192 363.949158,359.916748 
	C362.908630,359.932617 361.868073,359.948517 360.188446,359.602173 
	C356.334503,359.113739 353.119629,358.987579 349.904785,358.861420 
	C348.896362,358.894684 347.887909,358.927917 346.266754,358.625000 
	C343.730530,358.132416 341.807068,357.975952 339.883575,357.819489 
	C339.459412,357.851471 339.035248,357.883423 337.913788,357.960266 
	C336.862366,358.563782 336.100128,359.233704 336.217377,359.663910 
	C337.356354,363.842529 338.642670,367.981049 339.886963,372.130981 
	C339.886963,372.130981 339.887238,372.038361 339.847656,372.459717 
	C340.263000,375.266418 340.717957,377.651825 341.172913,380.037201 
	C341.172882,380.037201 340.983337,380.062653 340.849243,380.206055 
	C340.518890,380.482727 340.434509,380.667206 340.461975,380.902954 
	C337.597565,381.063629 334.720581,381.460724 331.872772,381.309204 
	C329.648163,381.190796 327.450104,380.430176 325.257599,379.885223 
	C322.007996,379.077576 319.967224,380.313507 318.433044,383.247498 
	C317.290649,385.432190 315.579803,387.319611 313.625183,389.259552 
	C312.947296,388.985107 312.766327,388.790527 312.692993,388.341644 
	C312.907867,387.739594 313.015137,387.391815 313.081970,387.042175 
	C313.041504,387.040314 313.062836,387.118439 313.290985,387.002258 
	C313.652527,386.583008 313.785919,386.279907 313.955627,385.973877 
	C313.991913,385.970947 313.955505,385.907867 314.168732,385.719391 
	C314.624115,385.032806 314.866241,384.534729 315.066101,384.033569 
	C315.023865,384.030457 315.074524,384.098419 315.309631,383.966888 
	C315.882111,383.204559 316.219452,382.573761 316.735840,381.755798 
	C316.945923,381.398712 316.976990,381.228851 317.240540,380.868347 
	C317.687714,380.131683 317.902374,379.585632 318.072693,379.035126 
	C318.028351,379.030670 318.084320,379.100037 318.336853,378.929626 
	C318.776428,378.191315 318.963440,377.623413 319.102600,377.051086 
	C319.054749,377.046661 319.111633,377.124115 319.365570,376.953339 
	C319.802795,376.209625 319.986084,375.636658 320.121338,375.061615 
	C320.073334,375.059509 320.126923,375.139313 320.377991,374.962341 
	C320.794708,374.203979 320.960388,373.622589 321.081085,373.036926 
	C321.036072,373.032654 321.090790,373.104645 321.360321,372.887146 
	C322.147034,371.138763 322.664215,369.607941 323.131104,368.065369 
	C323.080811,368.053680 323.132324,368.143188 323.397034,367.898071 
	C324.367157,365.631012 325.228119,363.648315 325.750061,361.580078 
	C327.639801,354.091614 329.415710,346.574463 331.415070,339.106049 
	C331.595581,339.143982 331.948395,339.036255 332.240356,339.164581 
	C335.039795,338.542725 337.547272,337.792572 340.031738,337.020020 
	C340.008698,336.997650 340.025665,337.059570 340.332336,337.011108 
	C341.412445,336.305145 342.185852,335.647675 342.981079,334.997559 
	C343.002869,335.004944 342.997650,334.959198 343.231018,334.883301 
	C343.755524,334.615906 343.930939,334.348450 343.996216,334.003754 
	C344.001801,334.002441 344.003754,333.991272 344.301727,333.844788 
	C345.758362,331.808167 346.917023,329.917969 348.039215,328.021545 
	C348.002777,328.015320 348.052002,328.070526 348.319275,327.793823 
	C351.028503,320.437714 351.100372,313.536957 347.015869,306.968933 
	C346.995911,306.989777 347.052704,306.979523 347.008362,306.672699 
	C346.298950,305.600800 345.633881,304.835754 344.982452,304.039307 
	C344.996094,304.007935 344.931366,304.030060 344.795959,303.748596 
	C343.795532,302.932526 342.930542,302.397858 342.046326,301.916473 
	C342.027069,301.969757 342.111328,301.893982 341.937744,301.633606 
	C341.173615,301.267181 340.583069,301.161102 339.784973,301.003296 
	C339.577362,300.951599 339.149567,300.944489 338.906525,300.639801 
	C337.114105,300.213348 335.564697,300.091583 334.006683,299.984680 
	C333.998047,299.999542 334.028473,299.984314 334.020416,299.517365 
	C333.645081,290.304108 333.422546,281.548340 332.854370,272.815125 
	C332.531158,267.847046 331.642883,262.915710 331.063660,257.515106 
	C328.695404,243.526733 327.317230,229.695679 323.593445,216.527954 
	C318.593262,198.846878 308.636200,184.049835 292.758789,173.737717 
	C277.413239,163.771072 260.468292,161.636871 242.872482,163.344330 
	C226.615479,164.921875 212.435944,171.568069 200.973526,183.369446 
	C183.507339,201.352097 178.594894,223.889999 177.812866,248.297745 
	C177.407593,258.085999 176.970840,267.495667 176.993362,276.904266 
	C177.010284,283.975830 177.616928,291.045990 177.931641,298.542786 
	C177.902206,300.734619 177.902206,302.500397 177.902206,304.173065 
	C165.724930,306.270294 163.182037,310.141479 162.633728,326.749420 
	C162.323914,336.133087 169.730484,342.882355 183.564575,345.760773 
	C183.755676,346.522644 183.922607,347.332672 184.161880,348.120728 
	C188.699966,363.067047 193.940598,377.683929 203.911301,390.073181 
	C203.216110,390.426941 202.520920,390.780701 201.429565,390.733337 
	C200.736328,390.099060 200.439224,389.865875 200.142105,389.632721 
z"/>
<path fill="#01C4E1" opacity="1.000000" stroke="none" 
	d="
M204.222733,390.183716 
	C193.940598,377.683929 188.699966,363.067047 184.161880,348.120728 
	C183.922607,347.332672 183.755676,346.522644 183.564575,345.760773 
	C169.730484,342.882355 162.323914,336.133087 162.633728,326.749420 
	C163.182037,310.141479 165.724930,306.270294 177.902206,304.173065 
	C177.902206,302.500397 177.902206,300.734619 178.004593,298.067627 
	C178.064224,280.750488 178.021454,264.334595 177.978699,247.918701 
	C178.594894,223.889999 183.507339,201.352097 200.973526,183.369446 
	C212.435944,171.568069 226.615479,164.921875 242.872482,163.344330 
	C260.468292,161.636871 277.413239,163.771072 292.758789,173.737717 
	C308.636200,184.049835 318.593262,198.846878 323.593445,216.527954 
	C327.317230,229.695679 328.695404,243.526733 331.052856,257.984161 
	C331.333405,269.615326 331.556824,280.330963 332.103729,291.030090 
	C332.257538,294.039734 333.360718,297.000916 334.028473,299.984314 
	C334.028473,299.984314 333.998047,299.999542 334.250916,300.281677 
	C336.052399,300.690674 337.600983,300.817596 339.149567,300.944489 
	C339.149567,300.944489 339.577362,300.951599 339.976990,301.239410 
	C340.954865,301.649475 341.533081,301.771729 342.111328,301.893982 
	C342.111328,301.893982 342.027069,301.969757 342.155029,302.221191 
	C343.165741,302.991791 344.048553,303.510925 344.931366,304.030060 
	C344.931366,304.030060 344.996094,304.007935 345.016083,304.356842 
	C345.708282,305.463684 346.380493,306.221588 347.052704,306.979523 
	C347.052704,306.979523 346.995911,306.989777 347.008942,307.376404 
	C349.509796,314.423431 349.199493,321.225769 348.052002,328.070526 
	C348.052002,328.070526 348.002777,328.015320 347.727570,328.157471 
	C346.302826,330.196869 345.153290,332.094055 344.003754,333.991272 
	C344.003754,333.991272 344.001801,334.002441 343.774536,334.096558 
	C343.268402,334.378479 343.085205,334.634644 342.997650,334.959198 
	C342.997650,334.959198 343.002869,335.004944 342.660675,335.023804 
	C341.554199,335.714966 340.789917,336.387268 340.025665,337.059570 
	C340.025665,337.059570 340.008698,336.997650 339.628662,337.004150 
	C336.815216,337.685883 334.381805,338.361053 331.948395,339.036255 
	C331.948395,339.036255 331.595581,339.143982 331.021118,339.139313 
	C329.457947,342.457062 328.334137,345.746338 327.509613,349.109009 
	C325.959290,355.431366 324.581726,361.796082 323.132324,368.143188 
	C323.132324,368.143188 323.080811,368.053680 322.784485,368.201172 
	C322.022400,369.933990 321.556610,371.519318 321.090790,373.104645 
	C321.090790,373.104645 321.036072,373.032654 320.806702,373.197571 
	C320.427185,373.954773 320.277039,374.547028 320.126923,375.139313 
	C320.126923,375.139313 320.073334,375.059509 319.839844,375.210205 
	C319.441437,375.948669 319.276550,376.536377 319.111633,377.124115 
	C319.111633,377.124115 319.054749,377.046661 318.824951,377.200439 
	C318.424866,377.936188 318.254608,378.518097 318.084351,379.100037 
	C318.084320,379.100037 318.028351,379.030670 317.801514,379.187164 
	C317.385773,379.915436 317.196899,380.487183 317.008057,381.058960 
	C316.976990,381.228851 316.945923,381.398712 316.453857,381.843140 
	C315.686737,382.777924 315.380646,383.438171 315.074524,384.098419 
	C315.074524,384.098419 315.023865,384.030457 314.803558,384.169312 
	C314.373993,384.841370 314.164734,385.374603 313.955505,385.907867 
	C313.955505,385.907867 313.991913,385.970947 313.742432,386.103821 
	C313.234833,386.474609 313.091461,386.768524 313.062836,387.118439 
	C313.062836,387.118439 313.041504,387.040314 312.819122,387.168701 
	C312.380035,387.817932 312.163300,388.338776 311.962769,388.907562 
	C311.978943,388.955475 311.879822,388.975586 311.674103,389.094147 
	C311.217957,389.431061 311.069824,389.704803 311.012024,390.016968 
	C311.000000,390.000000 311.035156,390.021912 310.800598,390.130859 
	C310.396271,390.531952 310.226501,390.824097 310.042450,391.079224 
	C310.028168,391.042206 310.107483,391.040253 309.847687,391.180817 
	C309.429382,391.672241 309.270874,392.023102 308.980774,392.669312 
	C305.333801,396.247803 302.135803,399.976624 298.252075,402.742645 
	C270.288300,422.658813 236.309586,419.955078 208.998611,395.861572 
	C207.510468,394.005798 206.022308,392.149994 204.222733,390.183716 
M304.588806,357.476257 
	C303.944702,357.347900 303.300568,357.219543 302.301880,357.131561 
	C302.301880,357.131561 302.014008,356.920654 301.633972,356.451965 
	C301.058472,356.324890 300.482941,356.197815 299.976318,356.029297 
	C299.976318,356.029297 299.975525,356.109711 299.535583,355.502106 
	C298.553345,355.366547 297.571106,355.230988 296.276764,355.166351 
	C296.276764,355.166351 296.021973,354.972595 295.650299,354.328186 
	C294.797729,353.884125 293.992462,353.236877 293.085663,353.025970 
	C274.788544,348.770111 256.431915,348.731506 238.070572,352.533386 
	C235.958618,352.970673 234.001770,354.157104 231.735550,355.183838 
	C231.735550,355.183838 231.446243,355.095001 230.666916,355.054443 
	C229.787399,355.410065 228.907883,355.765686 228.019806,356.038971 
	C228.019806,356.038971 228.093658,356.076385 227.388885,356.035095 
	C226.601669,356.394440 225.814453,356.753784 225.024475,357.032135 
	C225.024475,357.032135 225.095322,357.071472 224.383789,357.034149 
	C223.606644,357.415039 222.829498,357.795898 222.048065,358.087952 
	C222.048065,358.087952 222.133057,358.114197 221.362198,358.043854 
	C219.930649,358.753754 218.499100,359.463623 217.053802,360.083374 
	C217.053802,360.083374 217.139771,360.113708 216.503281,360.087067 
	C216.010727,360.419037 215.518158,360.751007 215.014679,361.008209 
	C215.014679,361.008209 215.074646,361.054199 214.335983,361.028778 
	C212.570419,362.055725 210.804855,363.082703 209.028305,364.032715 
	C209.028305,364.032715 209.105850,364.038177 208.619675,364.239319 
	C208.418762,364.518768 208.217850,364.798218 207.999664,365.506134 
	C207.999664,365.506134 208.014175,365.934723 208.097717,366.593445 
	C210.051376,366.026550 212.005051,365.459656 213.997177,364.969086 
	C213.997177,364.969086 213.918823,364.934998 214.709732,364.973694 
	C217.147354,363.994507 219.584961,363.015289 222.265778,361.837006 
	C222.265778,361.837006 222.572296,361.906525 223.484909,361.953125 
	C227.217438,361.298157 230.946777,360.624359 234.683197,359.992493 
	C240.798264,358.958344 246.917969,357.951538 253.966309,356.998047 
	C260.612610,356.989044 267.258881,356.980042 274.736633,357.083832 
	C282.037872,358.056793 289.335815,359.055450 296.641907,359.990601 
	C299.760620,360.389832 302.896332,360.656433 306.437958,360.908051 
	C306.437958,360.908051 306.855347,360.958923 307.475769,360.914337 
	C307.834625,360.522705 308.193481,360.131042 308.552338,359.739410 
	C308.024445,359.498962 307.496552,359.258545 306.995880,358.995636 
	C306.995880,358.995636 306.989685,359.029999 306.670013,358.523376 
	C306.110596,358.354950 305.551208,358.186554 304.998444,358.000000 
	C304.998444,358.000000 304.983795,358.015564 304.588806,357.476257 
M229.061661,216.004562 
	C220.264114,216.001678 211.466537,215.993835 202.669342,216.047592 
	C202.549301,216.048325 202.434006,216.826080 201.655029,217.612671 
	C199.294281,218.277512 196.846786,218.729004 194.589096,219.647217 
	C187.848618,222.388672 186.825989,227.845459 192.377045,233.694275 
	C194.235046,234.129669 196.091034,234.933014 197.951385,234.943222 
	C215.386780,235.038956 232.822922,235.003586 250.258850,234.992157 
	C252.415268,234.990753 254.595032,235.096207 256.724152,234.831573 
	C269.305389,233.267685 281.901337,231.785370 294.436218,229.901993 
	C300.036896,229.060501 305.506897,227.349411 311.279266,225.834763 
	C311.279266,225.834763 311.582367,225.915390 312.316986,225.906860 
	C312.855560,225.501892 313.394104,225.096924 314.318207,224.124786 
	C315.110535,221.806412 317.236908,218.642990 316.415741,217.346695 
	C314.739136,214.699936 311.753418,212.100479 308.796661,211.244797 
	C305.112000,210.178482 300.863464,210.468536 296.945007,210.921555 
	C287.917480,211.965240 278.942291,213.461472 269.316193,214.287354 
	C267.348206,214.196228 265.370911,213.935196 263.413727,214.042053 
	C252.272736,214.650452 241.136520,215.346649 229.061661,216.004562 
M324.932343,268.475647 
	C325.802338,262.344543 326.231415,256.298370 321.836639,251.132156 
	C323.488770,260.585785 322.066284,269.346771 316.778748,277.373352 
	C309.554901,288.339203 296.693817,292.832245 283.933624,288.890228 
	C270.909576,284.866669 263.781464,274.994110 264.024994,261.374420 
	C264.083862,258.081757 264.033722,254.787155 264.033722,251.493454 
	C257.683685,262.356262 258.779175,272.963226 265.769287,282.423523 
	C273.301544,292.617584 284.742981,297.928223 296.750092,296.453033 
	C311.749329,294.610291 322.424744,285.554718 324.932343,268.475647 
M194.098694,287.411163 
	C210.640778,302.035828 231.053619,297.764252 243.318192,283.721252 
	C251.788345,274.022919 253.134094,257.037598 246.605972,252.263885 
	C250.189819,270.519928 240.860443,285.466736 223.098953,289.464966 
	C212.126022,291.935059 202.589066,288.881714 195.087616,280.499146 
	C187.660629,272.199768 187.069427,261.879791 187.800980,251.296722 
	C181.795731,261.124908 184.464066,276.183838 194.098694,287.411163 
M269.190369,301.684814 
	C268.920502,300.680115 268.650665,299.675415 268.380798,298.670715 
	C267.969360,301.897583 268.208740,305.019775 267.910492,308.089752 
	C267.512177,312.189636 267.329987,316.503540 265.830933,320.233612 
	C264.877869,322.605133 261.879791,325.227936 259.468353,325.600677 
	C257.539032,325.898926 254.548248,323.394196 253.046234,321.376068 
	C251.121735,318.790253 249.960312,315.528625 248.945129,312.403839 
	C247.899872,309.186523 247.425705,305.783630 246.469635,301.397400 
	C245.648209,303.167511 244.922409,303.960815 245.059525,304.555023 
	C246.466675,310.652863 247.652084,316.840576 249.648590,322.750122 
	C250.983536,326.701416 253.599548,330.294220 258.623291,330.092072 
	C263.555206,329.893616 266.287750,326.640198 268.183960,322.488678 
	C271.165649,315.960602 270.529602,309.216522 269.190369,301.684814 
z"/>
<path fill="#142021" opacity="1.000000" stroke="none" 
	d="
M208.674149,395.903687 
	C236.309586,419.955078 270.288300,422.658813 298.252075,402.742645 
	C302.135803,399.976624 305.333801,396.247803 309.225464,392.512054 
	C309.770294,391.719696 309.938904,391.379974 310.107483,391.040253 
	C310.107483,391.040253 310.028168,391.042206 310.262482,391.010498 
	C310.496796,390.978790 310.940674,390.855804 311.052185,391.088806 
	C311.430115,391.528473 311.696533,391.735107 311.962982,391.941742 
	C294.846985,415.847565 257.877411,424.782166 229.770187,411.441711 
	C223.222092,408.333832 217.286255,403.935944 210.619171,399.739624 
	C209.822662,399.160278 209.475677,398.972931 209.128677,398.785583 
	C209.128677,398.785583 209.132568,398.886444 209.088867,398.605988 
	C208.744553,398.148407 208.443954,397.971313 208.143341,397.794220 
	C208.143341,397.794220 208.081970,397.896881 208.034912,397.631897 
	C207.673264,397.210938 207.358673,397.054993 207.044067,396.899048 
	C207.044067,396.899048 207.022125,396.980896 207.017944,396.754150 
	C207.013763,396.527435 207.055298,396.110870 207.055298,396.110870 
	C207.486755,396.055847 207.918228,396.000824 208.674149,395.903687 
z"/>
<path fill="#18C9DB" opacity="1.000000" stroke="none" 
	d="
M355.868042,149.052063 
	C343.809540,152.183502 331.307007,155.291122 317.596741,158.698914 
	C319.305664,128.133560 315.780487,99.501160 311.954010,70.450989 
	C312.942139,74.077782 314.359772,78.091286 314.886169,82.218468 
	C317.779297,104.902779 319.810028,127.648582 319.030884,150.567413 
	C318.834625,156.340393 319.027924,156.370667 324.857605,155.203171 
	C335.049866,153.162033 345.235535,151.088318 355.868042,149.052063 
z"/>
<path fill="#03DDF9" opacity="1.000000" stroke="none" 
	d="
M138.118881,360.012482 
	C142.467346,359.687805 146.635071,359.629059 151.239807,359.651031 
	C154.091141,359.916718 156.505463,360.101654 158.919785,360.286621 
	C158.907700,360.617645 158.895630,360.948700 158.883545,361.279755 
	C151.901749,360.945953 144.919937,360.612183 138.118881,360.012482 
z"/>
<path fill="#0CD2EA" opacity="1.000000" stroke="none" 
	d="
M362.939087,338.690826 
	C360.146423,333.958740 358.081024,328.788422 362.682312,323.230804 
	C360.008881,328.129791 362.052826,333.205383 362.939087,338.690826 
z"/>
<path fill="#0CD2EA" opacity="1.000000" stroke="none" 
	d="
M339.917297,371.703430 
	C338.642670,367.981049 337.356354,363.842529 336.217377,359.663910 
	C336.100128,359.233704 336.862366,358.563782 337.602539,358.053284 
	C338.641571,362.492950 339.294586,366.884430 339.917297,371.703430 
z"/>
<path fill="#0CD2EA" opacity="1.000000" stroke="none" 
	d="
M350.164185,359.168945 
	C353.119629,358.987579 356.334503,359.113739 359.798676,359.580627 
	C356.839844,359.773071 353.631714,359.624756 350.164185,359.168945 
z"/>
<path fill="#0CD2EA" opacity="1.000000" stroke="none" 
	d="
M341.493256,379.955597 
	C340.717957,377.651825 340.263000,375.266418 339.803772,372.474457 
	C340.470856,374.669922 341.142242,377.271942 341.493256,379.955597 
z"/>
<path fill="#18C9DB" opacity="1.000000" stroke="none" 
	d="
M386.309998,145.846786 
	C386.577606,144.243896 387.150726,142.486618 387.774292,140.385391 
	C387.421692,141.925095 387.018616,143.808746 386.309998,145.846786 
z"/>
<path fill="#0CD2EA" opacity="1.000000" stroke="none" 
	d="
M364.146057,360.182861 
	C365.377563,359.609192 366.806000,359.301666 368.622986,359.040253 
	C367.455383,359.540558 365.899139,359.994751 364.146057,360.182861 
z"/>
<path fill="#18C9DB" opacity="1.000000" stroke="none" 
	d="
M381.390747,155.859436 
	C381.899567,154.174530 382.703583,152.307724 383.745270,150.203796 
	C383.217255,151.870285 382.451599,153.773895 381.390747,155.859436 
z"/>
<path fill="#18C9DB" opacity="1.000000" stroke="none" 
	d="
M362.706055,147.047714 
	C361.301361,147.697601 359.503601,148.323166 357.336212,148.940521 
	C358.748718,148.296021 360.530823,147.659698 362.706055,147.047714 
z"/>
<path fill="#18C9DB" opacity="1.000000" stroke="none" 
	d="
M386.769958,138.798920 
	C385.250610,139.394928 383.512939,139.704514 381.394714,140.031158 
	C382.859955,139.536316 384.705811,139.024414 386.769958,138.798920 
z"/>
<path fill="#18C9DB" opacity="1.000000" stroke="none" 
	d="
M366.111481,191.767029 
	C366.338043,190.412567 366.882965,188.894775 367.683685,187.145981 
	C367.436249,188.477875 366.933075,190.040787 366.111481,191.767029 
z"/>
<path fill="#18C9DB" opacity="1.000000" stroke="none" 
	d="
M360.975342,202.788467 
	C361.267731,201.443222 361.894592,199.960114 362.756897,198.228851 
	C362.431488,199.537338 361.870667,201.093979 360.975342,202.788467 
z"/>
<path fill="#18C9DB" opacity="1.000000" stroke="none" 
	d="
M371.153107,179.782532 
	C371.387512,178.446060 371.930267,176.932831 372.714661,175.175354 
	C372.458008,176.489334 371.959717,178.047577 371.153107,179.782532 
z"/>
<path fill="#0CD2EA" opacity="1.000000" stroke="none" 
	d="
M340.141937,358.135559 
	C341.807068,357.975952 343.730530,358.132416 345.886902,358.626709 
	C344.213287,358.793579 342.306793,358.622620 340.141937,358.135559 
z"/>
<path fill="#01C4E1" opacity="1.000000" stroke="none" 
	d="
M206.863190,395.844696 
	C207.055298,396.110870 207.013763,396.527435 207.054443,396.732697 
	C206.238297,396.523376 205.381454,396.108795 204.524597,395.694214 
	C205.240112,395.655640 205.955597,395.617096 206.863190,395.844696 
z"/>
<path fill="#18C9DB" opacity="1.000000" stroke="none" 
	d="
M370.769958,144.078308 
	C369.667206,144.758713 368.195801,145.407959 366.369751,146.067902 
	C367.477173,145.401443 368.939270,144.724289 370.769958,144.078308 
z"/>
<path fill="#010202" opacity="1.000000" stroke="none" 
	d="
M312.191833,391.787811 
	C311.696533,391.735107 311.430115,391.528473 311.086304,390.881653 
	C311.008911,390.441437 311.035156,390.021912 311.035156,390.021912 
	C311.035156,390.021912 311.000000,390.000000 311.228149,389.907318 
	C311.736908,389.605316 311.878082,389.325623 311.879822,388.975586 
	C311.879822,388.975586 311.978943,388.955475 312.121277,388.838898 
	C312.263641,388.722321 312.585358,388.595917 312.585358,388.595917 
	C312.766327,388.790527 312.947296,388.985107 313.376221,389.492401 
	C313.223022,390.414703 312.821838,391.024292 312.191833,391.787811 
z"/>
<path fill="#18C9DB" opacity="1.000000" stroke="none" 
	d="
M377.131256,165.783966 
	C377.091949,165.143600 377.344940,164.329559 377.804962,163.265976 
	C377.815826,163.881058 377.619690,164.745667 377.131256,165.783966 
z"/>
<path fill="#18C9DB" opacity="1.000000" stroke="none" 
	d="
M374.128418,172.784271 
	C374.091797,172.145279 374.348053,171.335434 374.811646,170.277679 
	C374.819763,170.891006 374.620514,171.752213 374.128418,172.784271 
z"/>
<path fill="#18C9DB" opacity="1.000000" stroke="none" 
	d="
M365.726257,146.033752 
	C365.283508,146.411209 364.489807,146.773758 363.359375,147.126038 
	C363.806854,146.750137 364.591064,146.384491 365.726257,146.033752 
z"/>
<path fill="#18C9DB" opacity="1.000000" stroke="none" 
	d="
M373.639862,142.991135 
	C373.222015,143.374100 372.459229,143.757538 371.370056,144.153214 
	C371.794098,143.774185 372.544495,143.382904 373.639862,142.991135 
z"/>
<path fill="#18C9DB" opacity="1.000000" stroke="none" 
	d="
M311.945496,69.741440 
	C311.612030,69.588196 311.262482,69.109428 310.814819,68.347015 
	C311.120941,68.514221 311.525177,68.965057 311.945496,69.741440 
z"/>
<path fill="#0CD2EA" opacity="1.000000" stroke="none" 
	d="
M366.943115,347.747406 
	C366.640656,347.571442 366.322205,347.092621 365.990601,346.319611 
	C366.294006,346.498444 366.610596,346.971497 366.943115,347.747406 
z"/>
<path fill="#18C9DB" opacity="1.000000" stroke="none" 
	d="
M385.237244,147.835266 
	C385.187469,147.468246 385.388458,146.939789 385.796082,146.208313 
	C385.831146,146.561478 385.659576,147.117645 385.237244,147.835266 
z"/>
<path fill="#18C9DB" opacity="1.000000" stroke="none" 
	d="
M378.262665,162.832092 
	C378.189636,162.455780 378.363708,161.904907 378.752319,161.150360 
	C378.814484,161.516983 378.662140,162.087250 378.262665,162.832092 
z"/>
<path fill="#18C9DB" opacity="1.000000" stroke="none" 
	d="
M380.163330,158.782715 
	C380.052795,158.338196 380.231079,157.703491 380.660645,156.843903 
	C380.758667,157.276886 380.605408,157.934723 380.163330,158.782715 
z"/>
<path fill="#18C9DB" opacity="1.000000" stroke="none" 
	d="
M376.214264,167.815979 
	C376.102570,167.404922 376.253723,166.821136 376.647278,166.049194 
	C376.752167,166.455124 376.614655,167.049194 376.214264,167.815979 
z"/>
<path fill="#18C9DB" opacity="1.000000" stroke="none" 
	d="
M375.271240,169.833435 
	C375.200989,169.460938 375.375519,168.912354 375.759766,168.156799 
	C375.818268,168.518997 375.667114,169.088181 375.271240,169.833435 
z"/>
<path fill="#18C9DB" opacity="1.000000" stroke="none" 
	d="
M373.195099,174.813293 
	C373.084229,174.398880 373.238220,173.813126 373.639893,173.043854 
	C373.745026,173.454208 373.602478,174.048065 373.195099,174.813293 
z"/>
<path fill="#18C9DB" opacity="1.000000" stroke="none" 
	d="
M370.214539,181.815338 
	C370.104614,181.404831 370.256744,180.821777 370.652435,180.051620 
	C370.756195,180.457275 370.616394,181.050034 370.214539,181.815338 
z"/>
<path fill="#18C9DB" opacity="1.000000" stroke="none" 
	d="
M369.287201,183.859711 
	C369.216736,183.490524 369.384644,182.932846 369.760803,182.163391 
	C369.821228,182.524811 369.673401,183.098007 369.287201,183.859711 
z"/>
<path fill="#18C9DB" opacity="1.000000" stroke="none" 
	d="
M368.191650,186.777832 
	C368.074066,186.329636 368.243286,185.676331 368.660095,184.780548 
	C368.764587,185.216278 368.621521,185.894485 368.191650,186.777832 
z"/>
<path fill="#18C9DB" opacity="1.000000" stroke="none" 
	d="
M365.164001,193.806686 
	C365.043243,193.381668 365.195343,192.788422 365.599579,192.013519 
	C365.713440,192.434067 365.575134,193.036270 365.164001,193.806686 
z"/>
<path fill="#18C9DB" opacity="1.000000" stroke="none" 
	d="
M364.198364,195.818481 
	C364.104431,195.412384 364.274109,194.840607 364.686676,194.085373 
	C364.773712,194.485550 364.617859,195.069183 364.198364,195.818481 
z"/>
<path fill="#18C9DB" opacity="1.000000" stroke="none" 
	d="
M363.237488,197.828201 
	C363.161102,197.443771 363.337402,196.888275 363.736298,196.134735 
	C363.802643,196.510178 363.646423,197.083664 363.237488,197.828201 
z"/>
<path fill="#18C9DB" opacity="1.000000" stroke="none" 
	d="
M384.223663,149.832016 
	C384.166321,149.456863 384.362274,148.918823 384.774994,148.183075 
	C384.820160,148.546616 384.648560,149.107880 384.223663,149.832016 
z"/>
<path fill="#0CD2EA" opacity="1.000000" stroke="none" 
	d="
M371.338959,356.818604 
	C371.046600,356.571136 370.957886,356.148438 370.845917,355.402466 
	C371.062622,355.600616 371.302612,356.122009 371.338959,356.818604 
z"/>
<path fill="#18C9DB" opacity="1.000000" stroke="none" 
	d="
M380.750854,140.034637 
	C380.555023,140.325241 380.059723,140.619202 379.270233,140.916397 
	C379.467834,140.625748 379.959595,140.331879 380.750854,140.034637 
z"/>
<path fill="#0CD2EA" opacity="1.000000" stroke="none" 
	d="
M368.969574,351.668976 
	C368.673584,351.505554 368.345520,351.049103 367.992004,350.307861 
	C368.290192,350.474030 368.613861,350.925018 368.969574,351.668976 
z"/>
<path fill="#0CD2EA" opacity="1.000000" stroke="none" 
	d="
M367.948975,349.725281 
	C367.641998,349.555847 367.314056,349.083862 366.965576,348.318970 
	C367.272675,348.491608 367.600372,348.957184 367.948975,349.725281 
z"/>
<path fill="#0CD2EA" opacity="1.000000" stroke="none" 
	d="
M365.950623,345.711670 
	C365.662994,345.524109 365.353119,345.037048 365.025879,344.254974 
	C365.315155,344.444031 365.621765,344.928101 365.950623,345.711670 
z"/>
<path fill="#0CD2EA" opacity="1.000000" stroke="none" 
	d="
M364.924133,343.196777 
	C364.571136,342.977264 364.208252,342.380768 363.813477,341.425629 
	C364.159180,341.651276 364.536713,342.235535 364.924133,343.196777 
z"/>
<path fill="#0CD2EA" opacity="1.000000" stroke="none" 
	d="
M363.869019,340.851013 
	C363.525970,340.672455 363.206238,340.169312 362.877533,339.353516 
	C363.209839,339.536041 363.551117,340.031219 363.869019,340.851013 
z"/>
<path fill="#18C9DB" opacity="1.000000" stroke="none" 
	d="
M378.050781,141.084915 
	C377.829956,141.419601 377.259094,141.745178 376.352478,142.079346 
	C376.578033,141.750549 377.139404,141.413177 378.050781,141.084915 
z"/>
<path fill="#18C9DB" opacity="1.000000" stroke="none" 
	d="
M379.209167,160.817596 
	C379.110931,160.412308 379.274078,159.837219 379.677795,159.074890 
	C379.769104,159.474365 379.619843,160.061081 379.209167,160.817596 
z"/>
<path fill="#0CD2EA" opacity="1.000000" stroke="none" 
	d="
M363.397949,322.957001 
	C363.501892,322.593872 363.928070,322.181122 364.638062,321.654694 
	C364.521271,321.996460 364.120728,322.451904 363.397949,322.957001 
z"/>
<path fill="#18C9DB" opacity="1.000000" stroke="none" 
	d="
M375.774963,142.053589 
	C375.585541,142.359634 375.089111,142.664841 374.294189,142.978302 
	C374.486450,142.675308 374.977173,142.364044 375.774963,142.053589 
z"/>
<path fill="#01C4E1" opacity="1.000000" stroke="none" 
	d="
M202.549744,393.467896 
	C202.582443,393.522888 202.517029,393.412933 202.549744,393.467896 
z"/>
<path fill="#01C4E1" opacity="1.000000" stroke="none" 
	d="
M209.249756,399.074707 
	C209.475677,398.972931 209.822662,399.160278 210.328629,399.605713 
	C210.115341,399.697144 209.743088,399.530487 209.249756,399.074707 
z"/>
<path fill="#01C4E1" opacity="1.000000" stroke="none" 
	d="
M208.217102,398.058838 
	C208.443954,397.971313 208.744553,398.148407 209.131989,398.579773 
	C208.909500,398.663879 208.600189,398.493683 208.217102,398.058838 
z"/>
<path fill="#01C4E1" opacity="1.000000" stroke="none" 
	d="
M207.154922,397.142548 
	C207.358673,397.054993 207.673264,397.210938 208.091293,397.611938 
	C207.885071,397.699982 207.575424,397.543030 207.154922,397.142548 
z"/>
<path fill="#01C4E1" opacity="1.000000" stroke="none" 
	d="
M200.215698,389.922089 
	C200.439224,389.865875 200.736328,390.099060 201.135437,390.600525 
	C200.921387,390.649719 200.605347,390.430573 200.215698,389.922089 
z"/>
<path fill="#0CD2EA" opacity="1.000000" stroke="none" 
	d="
M340.561462,380.800110 
	C340.434509,380.667206 340.518890,380.482727 340.865601,380.300232 
	C340.906647,380.406891 340.788269,380.555634 340.561462,380.800110 
z"/>
<path fill="#0CD2EA" opacity="1.000000" stroke="none" 
	d="
M369.990387,358.811035 
	C369.938873,358.608459 370.172302,358.299194 370.662231,357.847412 
	C370.704254,358.038055 370.489807,358.371185 369.990387,358.811035 
z"/>
<path fill="#18C9DB" opacity="1.000000" stroke="none" 
	d="
M387.845825,139.905396 
	C387.673828,139.935410 387.417664,139.708740 387.035156,139.253677 
	C387.193115,139.233093 387.477386,139.440903 387.845825,139.905396 
z"/>
<path fill="#0CD2EA" opacity="1.000000" stroke="none" 
	d="
M370.850616,354.921082 
	C370.665405,354.940430 370.414581,354.723206 370.138855,354.247253 
	C370.419556,354.141541 370.643250,354.373505 370.850616,354.921082 
z"/>
<path fill="#0CD2EA" opacity="1.000000" stroke="none" 
	d="
M369.861694,353.185730 
	C369.656464,353.188477 369.386871,352.896393 369.070496,352.306641 
	C369.281616,352.302948 369.539459,352.596893 369.861694,353.185730 
z"/>
<path fill="#13C2D4" opacity="1.000000" stroke="none" 
	d="
M334.020416,299.517365 
	C333.360718,297.000916 332.257538,294.039734 332.103729,291.030090 
	C331.556824,280.330963 331.333405,269.615326 330.998260,258.436890 
	C331.642883,262.915710 332.531158,267.847046 332.854370,272.815125 
	C333.422546,281.548340 333.645081,290.304108 334.020416,299.517365 
z"/>
<path fill="#25A0A8" opacity="1.000000" stroke="none" 
	d="
M177.812866,248.297745 
	C178.021454,264.334595 178.064224,280.750488 178.034027,297.641571 
	C177.616928,291.045990 177.010284,283.975830 176.993362,276.904266 
	C176.970840,267.495667 177.407593,258.085999 177.812866,248.297745 
z"/>
<path fill="#13C2D4" opacity="1.000000" stroke="none" 
	d="
M323.397034,367.898071 
	C324.581726,361.796082 325.959290,355.431366 327.509613,349.109009 
	C328.334137,345.746338 329.457947,342.457062 330.840607,339.101379 
	C329.415710,346.574463 327.639801,354.091614 325.750061,361.580078 
	C325.228119,363.648315 324.367157,365.631012 323.397034,367.898071 
z"/>
<path fill="#13C2D4" opacity="1.000000" stroke="none" 
	d="
M348.319275,327.793823 
	C349.199493,321.225769 349.509796,314.423431 347.028900,307.355560 
	C351.100372,313.536957 351.028503,320.437714 348.319275,327.793823 
z"/>
<path fill="#13C2D4" opacity="1.000000" stroke="none" 
	d="
M332.240356,339.164581 
	C334.381805,338.361053 336.815216,337.685883 339.651703,337.026550 
	C337.547272,337.792572 335.039795,338.542725 332.240356,339.164581 
z"/>
<path fill="#13C2D4" opacity="1.000000" stroke="none" 
	d="
M344.301727,333.844788 
	C345.153290,332.094055 346.302826,330.196869 347.764008,328.163727 
	C346.917023,329.917969 345.758362,331.808167 344.301727,333.844788 
z"/>
<path fill="#13C2D4" opacity="1.000000" stroke="none" 
	d="
M321.360321,372.887146 
	C321.556610,371.519318 322.022400,369.933990 322.834778,368.212891 
	C322.664215,369.607941 322.147034,371.138763 321.360321,372.887146 
z"/>
<path fill="#13C2D4" opacity="1.000000" stroke="none" 
	d="
M338.906525,300.639801 
	C337.600983,300.817596 336.052399,300.690674 334.259583,300.266815 
	C335.564697,300.091583 337.114105,300.213348 338.906525,300.639801 
z"/>
<path fill="#13C2D4" opacity="1.000000" stroke="none" 
	d="
M344.795959,303.748596 
	C344.048553,303.510925 343.165741,302.991791 342.174255,302.167908 
	C342.930542,302.397858 343.795532,302.932526 344.795959,303.748596 
z"/>
<path fill="#13C2D4" opacity="1.000000" stroke="none" 
	d="
M347.008362,306.672699 
	C346.380493,306.221588 345.708282,305.463684 345.002441,304.388214 
	C345.633881,304.835754 346.298950,305.600800 347.008362,306.672699 
z"/>
<path fill="#13C2D4" opacity="1.000000" stroke="none" 
	d="
M340.332336,337.011108 
	C340.789917,336.387268 341.554199,335.714966 342.638885,335.016418 
	C342.185852,335.647675 341.412445,336.305145 340.332336,337.011108 
z"/>
<path fill="#13C2D4" opacity="1.000000" stroke="none" 
	d="
M315.309631,383.966888 
	C315.380646,383.438171 315.686737,382.777924 316.274811,382.030334 
	C316.219452,382.573761 315.882111,383.204559 315.309631,383.966888 
z"/>
<path fill="#13C2D4" opacity="1.000000" stroke="none" 
	d="
M317.240540,380.868347 
	C317.196899,380.487183 317.385773,379.915436 317.845825,379.191620 
	C317.902374,379.585632 317.687714,380.131683 317.240540,380.868347 
z"/>
<path fill="#13C2D4" opacity="1.000000" stroke="none" 
	d="
M318.336884,378.929626 
	C318.254608,378.518097 318.424866,377.936188 318.872803,377.204895 
	C318.963440,377.623413 318.776428,378.191315 318.336884,378.929626 
z"/>
<path fill="#13C2D4" opacity="1.000000" stroke="none" 
	d="
M319.365570,376.953339 
	C319.276550,376.536377 319.441437,375.948669 319.887848,375.212341 
	C319.986084,375.636658 319.802795,376.209625 319.365570,376.953339 
z"/>
<path fill="#13C2D4" opacity="1.000000" stroke="none" 
	d="
M314.168701,385.719391 
	C314.164734,385.374603 314.373993,384.841370 314.845825,384.172394 
	C314.866241,384.534729 314.624115,385.032806 314.168701,385.719391 
z"/>
<path fill="#13C2D4" opacity="1.000000" stroke="none" 
	d="
M312.692993,388.341644 
	C312.585358,388.595917 312.263641,388.722321 312.105103,388.790985 
	C312.163300,388.338776 312.380035,387.817932 312.859558,387.170532 
	C313.015137,387.391815 312.907867,387.739594 312.692993,388.341644 
z"/>
<path fill="#13C2D4" opacity="1.000000" stroke="none" 
	d="
M320.377991,374.962341 
	C320.277039,374.547028 320.427185,373.954773 320.851715,373.201843 
	C320.960388,373.622589 320.794708,374.203979 320.377991,374.962341 
z"/>
<path fill="#13C2D4" opacity="1.000000" stroke="none" 
	d="
M341.937744,301.633606 
	C341.533081,301.771729 340.954865,301.649475 340.184570,301.291107 
	C340.583069,301.161102 341.173615,301.267181 341.937744,301.633606 
z"/>
<path fill="#13C2D4" opacity="1.000000" stroke="none" 
	d="
M313.290985,387.002258 
	C313.091461,386.768524 313.234833,386.474609 313.706177,386.106750 
	C313.785919,386.279907 313.652527,386.583008 313.290985,387.002258 
z"/>
<path fill="#13C2D4" opacity="1.000000" stroke="none" 
	d="
M343.231018,334.883301 
	C343.085205,334.634644 343.268402,334.378479 343.768921,334.097900 
	C343.930939,334.348450 343.755524,334.615906 343.231018,334.883301 
z"/>
<path fill="#020403" opacity="1.000000" stroke="none" 
	d="
M311.582367,225.915390 
	C311.582367,225.915390 311.279266,225.834763 310.747925,225.933426 
	C305.131531,226.886566 300.033569,227.671463 294.963409,228.606827 
	C262.654755,234.567291 230.020462,234.465332 197.361649,233.859207 
	C195.554657,233.825653 193.756653,233.307434 191.954468,233.014816 
	C186.825989,227.845459 187.848618,222.388672 194.589096,219.647217 
	C196.846786,218.729004 199.294281,218.277512 202.433044,217.476227 
	C212.142288,217.187271 221.073517,217.034744 230.466537,216.965729 
	C243.934189,216.290863 256.940033,215.532486 269.945862,214.774094 
	C278.942291,213.461472 287.917480,211.965240 296.945007,210.921555 
	C300.863464,210.468536 305.112000,210.178482 308.796661,211.244797 
	C311.753418,212.100479 314.739136,214.699936 316.415741,217.346695 
	C317.236908,218.642990 315.110535,221.806412 313.803467,224.502136 
	C312.719940,225.224777 312.151154,225.570084 311.582367,225.915390 
z"/>
<path fill="#090F0E" opacity="1.000000" stroke="none" 
	d="
M324.885345,268.895996 
	C322.424744,285.554718 311.749329,294.610291 296.750092,296.453033 
	C284.742981,297.928223 273.301544,292.617584 265.769287,282.423523 
	C258.779175,272.963226 257.683685,262.356262 264.033722,251.493454 
	C264.033722,254.787155 264.083862,258.081757 264.024994,261.374420 
	C263.781464,274.994110 270.909576,284.866669 283.933624,288.890228 
	C296.693817,292.832245 309.554901,288.339203 316.778748,277.373352 
	C322.066284,269.346771 323.488770,260.585785 321.836639,251.132156 
	C326.231415,256.298370 325.802338,262.344543 324.885345,268.895996 
z"/>
<path fill="#090F0F" opacity="1.000000" stroke="none" 
	d="
M193.845352,287.156982 
	C184.464066,276.183838 181.795731,261.124908 187.800980,251.296722 
	C187.069427,261.879791 187.660629,272.199768 195.087616,280.499146 
	C202.589066,288.881714 212.126022,291.935059 223.098953,289.464966 
	C240.860443,285.466736 250.189819,270.519928 246.605972,252.263885 
	C253.134094,257.037598 251.788345,274.022919 243.318192,283.721252 
	C231.053619,297.764252 210.640778,302.035828 193.845352,287.156982 
z"/>
<path fill="#0B1211" opacity="1.000000" stroke="none" 
	d="
M231.446243,355.095001 
	C231.446243,355.095001 231.735550,355.183838 232.261963,355.089233 
	C253.864365,349.640137 274.942322,349.830353 296.021973,354.972595 
	C296.021973,354.972595 296.276764,355.166351 296.724579,355.349548 
	C298.106781,355.725098 299.041138,355.917419 299.975525,356.109711 
	C299.975525,356.109711 299.976318,356.029297 300.141418,356.270599 
	C300.875702,356.648132 301.444855,356.784393 302.014008,356.920654 
	C302.014008,356.920654 302.301880,357.131561 302.717621,357.332092 
	C303.750183,357.693634 304.366974,357.854614 304.983795,358.015564 
	C304.983795,358.015564 304.998444,358.000000 305.202454,358.207458 
	C305.934235,358.619934 306.461945,358.824951 306.989685,359.029999 
	C306.989685,359.029999 306.995880,358.995636 307.072723,359.330566 
	C307.051483,360.096649 306.953400,360.527802 306.855347,360.958923 
	C306.855347,360.958923 306.437958,360.908051 305.895081,360.757538 
	C297.873962,359.356140 290.415802,357.959808 282.907593,356.927032 
	C279.964508,356.522156 276.909302,356.932159 273.905182,356.971039 
	C267.258881,356.980042 260.612610,356.989044 253.272354,356.645386 
	C242.576370,358.164001 232.574326,360.035248 222.572296,361.906525 
	C222.572296,361.906525 222.265778,361.837006 221.773804,361.950104 
	C218.827484,363.020477 216.373154,363.977753 213.918823,364.934998 
	C213.918823,364.934998 213.997177,364.969086 213.594696,364.948273 
	C211.466187,365.263214 209.740189,365.598969 208.014175,365.934723 
	C208.014175,365.934723 207.999664,365.506134 208.238205,365.172119 
	C208.686447,364.571442 208.896149,364.304810 209.105850,364.038177 
	C209.105850,364.038177 209.028305,364.032715 209.374451,364.005981 
	C211.505280,363.004211 213.289963,362.029205 215.074646,361.054199 
	C215.074646,361.054199 215.014679,361.008209 215.325638,361.029968 
	C216.137650,360.739014 216.638702,360.426361 217.139771,360.113708 
	C217.139771,360.113708 217.053802,360.083374 217.411255,360.099731 
	C219.223511,359.448822 220.678284,358.781525 222.133057,358.114197 
	C222.133057,358.114197 222.048065,358.087952 222.385452,358.118561 
	C223.513657,357.789917 224.304489,357.430695 225.095322,357.071472 
	C225.095322,357.071472 225.024475,357.032135 225.361572,357.068359 
	C226.496994,356.761871 227.295334,356.419159 228.093658,356.076416 
	C228.093658,356.076385 228.019806,356.038971 228.387817,356.081360 
	C229.652634,355.780853 230.549438,355.437927 231.446243,355.095001 
z"/>
<path fill="#0C1111" opacity="1.000000" stroke="none" 
	d="
M269.268463,302.064209 
	C270.529602,309.216522 271.165649,315.960602 268.183960,322.488678 
	C266.287750,326.640198 263.555206,329.893616 258.623291,330.092072 
	C253.599548,330.294220 250.983536,326.701416 249.648590,322.750122 
	C247.652084,316.840576 246.466675,310.652863 245.059525,304.555023 
	C244.922409,303.960815 245.648209,303.167511 246.469635,301.397400 
	C247.425705,305.783630 247.899872,309.186523 248.945129,312.403839 
	C249.960312,315.528625 251.121735,318.790253 253.046234,321.376068 
	C254.548248,323.394196 257.539032,325.898926 259.468353,325.600677 
	C261.879791,325.227936 264.877869,322.605133 265.830933,320.233612 
	C267.329987,316.503540 267.512177,312.189636 267.910492,308.089752 
	C268.208740,305.019775 267.969360,301.897583 268.380798,298.670715 
	C268.650665,299.675415 268.920502,300.680115 269.268463,302.064209 
z"/>
<path fill="#17CDE1" opacity="1.000000" stroke="none" 
	d="
M192.165756,233.354553 
	C193.756653,233.307434 195.554657,233.825653 197.361649,233.859207 
	C230.020462,234.465332 262.654755,234.567291 294.963409,228.606827 
	C300.033569,227.671463 305.131531,226.886566 310.626404,226.032532 
	C305.506897,227.349411 300.036896,229.060501 294.436218,229.901993 
	C281.901337,231.785370 269.305389,233.267685 256.724152,234.831573 
	C254.595032,235.096207 252.415268,234.990753 250.258850,234.992157 
	C232.822922,235.003586 215.386780,235.038956 197.951385,234.943222 
	C196.091034,234.933014 194.235046,234.129669 192.165756,233.354553 
z"/>
<path fill="#0FCBE2" opacity="1.000000" stroke="none" 
	d="
M295.836121,354.650391 
	C274.942322,349.830353 253.864365,349.640137 232.380676,354.995392 
	C234.001770,354.157104 235.958618,352.970673 238.070572,352.533386 
	C256.431915,348.731506 274.788544,348.770111 293.085663,353.025970 
	C293.992462,353.236877 294.797729,353.884125 295.836121,354.650391 
z"/>
<path fill="#08D3EF" opacity="1.000000" stroke="none" 
	d="
M269.631042,214.530731 
	C256.940033,215.532486 243.934189,216.290863 230.464600,216.748413 
	C230.000870,216.447601 229.998688,216.012985 229.998688,216.012985 
	C241.136520,215.346649 252.272736,214.650452 263.413727,214.042053 
	C265.370911,213.935196 267.348206,214.196228 269.631042,214.530731 
z"/>
<path fill="#0FCBE2" opacity="1.000000" stroke="none" 
	d="
M274.320923,357.027435 
	C276.909302,356.932159 279.964508,356.522156 282.907593,356.927032 
	C290.415802,357.959808 297.873962,359.356140 305.688232,360.795166 
	C302.896332,360.656433 299.760620,360.389832 296.641907,359.990601 
	C289.335815,359.055450 282.037872,358.056793 274.320923,357.027435 
z"/>
<path fill="#0FCBE2" opacity="1.000000" stroke="none" 
	d="
M223.028595,361.929810 
	C232.574326,360.035248 242.576370,358.164001 252.807068,356.612976 
	C246.917969,357.951538 240.798264,358.958344 234.683197,359.992493 
	C230.946777,360.624359 227.217438,361.298157 223.028595,361.929810 
z"/>
<path fill="#0AD7EE" opacity="1.000000" stroke="none" 
	d="
M229.530182,216.008774 
	C229.998688,216.012985 230.000870,216.447601 230.002808,216.664917 
	C221.073517,217.034744 212.142288,217.187271 202.763794,217.290482 
	C202.434006,216.826080 202.549301,216.048325 202.669342,216.047592 
	C211.466537,215.993835 220.264114,216.001678 229.530182,216.008774 
z"/>
<path fill="#0FCBE2" opacity="1.000000" stroke="none" 
	d="
M214.314270,364.954346 
	C216.373154,363.977753 218.827484,363.020477 221.652191,362.049622 
	C219.584961,363.015289 217.147354,363.994507 214.314270,364.954346 
z"/>
<path fill="#0FCBE2" opacity="1.000000" stroke="none" 
	d="
M208.055939,366.264099 
	C209.740189,365.598969 211.466187,365.263214 213.575470,364.910095 
	C212.005051,365.459656 210.051376,366.026550 208.055939,366.264099 
z"/>
<path fill="#0FCBE2" opacity="1.000000" stroke="none" 
	d="
M214.705322,361.041504 
	C213.289963,362.029205 211.505280,363.004211 209.379944,364.044434 
	C210.804855,363.082703 212.570419,362.055725 214.705322,361.041504 
z"/>
<path fill="#0FCBE2" opacity="1.000000" stroke="none" 
	d="
M221.747620,358.079041 
	C220.678284,358.781525 219.223511,359.448822 217.418137,360.144806 
	C218.499100,359.463623 219.930649,358.753754 221.747620,358.079041 
z"/>
<path fill="#0FCBE2" opacity="1.000000" stroke="none" 
	d="
M307.165527,360.936646 
	C306.953400,360.527802 307.051483,360.096649 307.059113,359.341827 
	C307.496552,359.258545 308.024445,359.498962 308.552338,359.739410 
	C308.193481,360.131042 307.834625,360.522705 307.165527,360.936646 
z"/>
<path fill="#0FCBE2" opacity="1.000000" stroke="none" 
	d="
M227.741272,356.055756 
	C227.295334,356.419159 226.496994,356.761871 225.362946,357.108856 
	C225.814453,356.753784 226.601669,356.394440 227.741272,356.055756 
z"/>
<path fill="#0FCBE2" opacity="1.000000" stroke="none" 
	d="
M299.755554,355.805908 
	C299.041138,355.917419 298.106781,355.725098 296.880615,355.314087 
	C297.571106,355.230988 298.553345,355.366547 299.755554,355.805908 
z"/>
<path fill="#0FCBE2" opacity="1.000000" stroke="none" 
	d="
M231.056580,355.074707 
	C230.549438,355.437927 229.652634,355.780853 228.392090,356.122559 
	C228.907883,355.765686 229.787399,355.410065 231.056580,355.074707 
z"/>
<path fill="#0FCBE2" opacity="1.000000" stroke="none" 
	d="
M224.739563,357.052795 
	C224.304489,357.430695 223.513657,357.789917 222.387589,358.162964 
	C222.829498,357.795898 223.606644,357.415039 224.739563,357.052795 
z"/>
<path fill="#0FCBE2" opacity="1.000000" stroke="none" 
	d="
M306.829834,358.776672 
	C306.461945,358.824951 305.934235,358.619934 305.199158,358.216492 
	C305.551208,358.186554 306.110596,358.354950 306.829834,358.776672 
z"/>
<path fill="#0FCBE2" opacity="1.000000" stroke="none" 
	d="
M304.786316,357.745911 
	C304.366974,357.854614 303.750183,357.693634 302.894897,357.311920 
	C303.300568,357.219543 303.944702,357.347900 304.786316,357.745911 
z"/>
<path fill="#0FCBE2" opacity="1.000000" stroke="none" 
	d="
M301.823975,356.686310 
	C301.444855,356.784393 300.875702,356.648132 300.106995,356.291321 
	C300.482941,356.197815 301.058472,356.324890 301.823975,356.686310 
z"/>
<path fill="#0FCBE2" opacity="1.000000" stroke="none" 
	d="
M216.821533,360.100403 
	C216.638702,360.426361 216.137650,360.739014 215.331100,361.067322 
	C215.518158,360.751007 216.010727,360.419037 216.821533,360.100403 
z"/>
<path fill="#17CDE1" opacity="1.000000" stroke="none" 
	d="
M311.949677,225.911133 
	C312.151154,225.570084 312.719940,225.224777 313.610718,224.785706 
	C313.394104,225.096924 312.855560,225.501892 311.949677,225.911133 
z"/>
<path fill="#13C2D4" opacity="1.000000" stroke="none" 
	d="
M309.847687,391.180817 
	C309.938904,391.379974 309.770294,391.719696 309.356995,392.216675 
	C309.270874,392.023102 309.429382,391.672241 309.847687,391.180817 
z"/>
<path fill="#13C2D4" opacity="1.000000" stroke="none" 
	d="
M310.800598,390.130859 
	C311.035156,390.021912 311.008911,390.441437 310.974792,390.648621 
	C310.940674,390.855804 310.496796,390.978790 310.276764,391.047485 
	C310.226501,390.824097 310.396271,390.531952 310.800598,390.130859 
z"/>
<path fill="#13C2D4" opacity="1.000000" stroke="none" 
	d="
M311.674103,389.094147 
	C311.878082,389.325623 311.736908,389.605316 311.240173,389.924286 
	C311.069824,389.704803 311.217957,389.431061 311.674103,389.094147 
z"/>
<path fill="#0FCBE2" opacity="1.000000" stroke="none" 
	d="
M208.862762,364.138733 
	C208.896149,364.304810 208.686447,364.571442 208.246841,364.957886 
	C208.217850,364.798218 208.418762,364.518768 208.862762,364.138733 
z"/>
</svg>